<?xml version="1.0" encoding="utf-8"?>
<!-- Generator: Adobe Illustrator 17.0.0, SVG Export Plug-In . SVG Version: 6.00 Build 0)  -->
<!DOCTYPE svg PUBLIC "-//W3C//DTD SVG 1.1//EN" "http://www.w3.org/Graphics/SVG/1.1/DTD/svg11.dtd">
<svg version="1.1" id="Layer_1" xmlns="http://www.w3.org/2000/svg" xmlns:xlink="http://www.w3.org/1999/xlink" x="0px" y="0px"
	 width="40px" height="40px" viewBox="0 0 40 40" enable-background="new 0 0 40 40" xml:space="preserve">
<g>
	<path fill="#00E191" d="M20,3.591c9.048,0,16.409,7.362,16.409,16.409S29.048,36.409,20,36.409S3.591,29.048,3.591,20
		S10.952,3.591,20,3.591 M20,1C9.506,1,1,9.506,1,20s8.506,19,19,19s19-8.506,19-19S30.494,1,20,1L20,1z"/>
</g>
<g id="Layer_3">
	<g>
		
			<rect x="10.999" y="19" transform="matrix(0.7071 -0.7071 0.7071 0.7071 -8.2846 19.9996)" fill="#00E191" width="18" height="2"/>
		
			<rect x="11" y="18.999" transform="matrix(0.7071 0.7071 -0.7071 0.7071 19.9996 -8.2846)" fill="#00E191" width="18" height="2"/>
	</g>
</g>
</svg>
